<?xml version="1.0" standalone="no"?>
<!DOCTYPE svg PUBLIC "-//W3C//DTD SVG 20010904//EN"
 "http://www.w3.org/TR/2001/REC-SVG-20010904/DTD/svg10.dtd">
<svg version="1.0" xmlns="http://www.w3.org/2000/svg"
 width="665.000000pt" height="665.000000pt" viewBox="0 0 665.000000 665.000000"
 preserveAspectRatio="xMidYMid meet">

<g transform="translate(0.000000,665.000000) scale(0.100000,-0.100000)"
fill="#000000" stroke="none">
<path d="M3145 6480 c-324 -29 -646 -102 -925 -211 -518 -202 -977 -536 -1316
-959 -469 -586 -738 -1407 -695 -2126 39 -636 213 -1149 556 -1639 159 -227
382 -463 608 -643 403 -321 889 -548 1377 -641 601 -114 1142 -63 1730 166
678 264 1259 768 1615 1404 265 471 406 1090 375 1640 -26 460 -128 844 -335
1264 -307 623 -777 1099 -1393 1411 -327 166 -668 271 -1037 318 -152 19 -430
27 -560 16z m295 -380 c72 -51 81 -157 18 -226 -18 -21 -18 -22 58 -137 41
-64 73 -121 69 -127 -3 -5 -41 42 -84 106 l-78 116 -80 2 -81 1 -83 -117 c-46
-65 -87 -118 -91 -118 -5 0 -8 -13 -8 -29 0 -36 -25 -59 -48 -44 -37 23 -20
73 24 73 13 0 24 4 24 9 0 4 38 61 84 127 l84 118 -18 24 c-62 78 -40 185 48
232 48 26 117 22 162 -10z m-644 5 c8 -20 -13 -45 -32 -38 -8 3 -14 16 -14 29
0 17 6 24 20 24 11 0 23 -7 26 -15z m1114 -10 c0 -18 -5 -25 -19 -25 -11 0
-23 5 -26 10 -11 18 3 40 25 40 15 0 20 -7 20 -25z m-1360 -30 c18 -22 4 -64
-24 -71 -14 -3 -27 -11 -29 -17 -3 -7 -46 -70 -97 -140 -68 -95 -91 -134 -86
-149 11 -44 -32 -76 -62 -46 -29 29 -7 78 35 78 13 0 23 6 23 13 0 6 40 69 89
139 65 92 89 136 89 156 -1 16 2 34 6 41 10 16 41 14 56 -4z m1640 6 c8 -6 14
-24 13 -45 -1 -20 2 -36 7 -36 8 0 154 -223 166 -253 18 -47 -20 -2 -96 115
-61 94 -93 133 -113 140 -36 13 -51 41 -37 68 11 21 36 26 60 11z m-1010 -111
c0 -6 -30 -10 -70 -10 -40 0 -70 4 -70 10 0 6 30 10 70 10 40 0 70 -4 70 -10z
m-1105 -50 c0 -29 -32 -41 -41 -16 -9 24 4 48 23 44 12 -2 18 -12 18 -28z
m2570 0 c0 -18 -6 -26 -21 -28 -23 -3 -37 18 -27 44 10 25 48 13 48 -16z
m-1871 -83 c19 -52 -34 -88 -75 -51 -23 21 -24 33 -3 62 23 33 65 26 78 -11z
m1200 17 c19 -18 21 -55 4 -72 -20 -20 -56 -14 -74 13 -15 23 -15 27 0 50 19
29 47 32 70 9z m454 -136 c18 -18 15 -65 -4 -72 -44 -17 -74 22 -49 60 17 26
35 30 53 12z m-2496 -97 c52 -22 111 -85 128 -136 20 -62 9 -148 -27 -197 -84
-117 -243 -130 -344 -29 -88 88 -93 213 -11 303 68 75 164 98 254 59z m2972 7
c58 -18 128 -90 145 -151 49 -174 -107 -327 -283 -277 -112 31 -186 157 -157
266 35 129 165 200 295 162z m-1261 -22 c20 -15 22 -47 5 -64 -18 -18 -36 -14
-53 12 -13 19 -14 29 -5 45 12 24 28 26 53 7z m-283 -81 c0 -13 -6 -25 -12
-28 -22 -7 -38 4 -38 28 0 13 6 25 13 28 21 7 37 -4 37 -28z m-606 -83 c-14
-22 -34 -22 -48 1 -9 15 -7 21 9 33 17 12 21 12 34 -1 12 -12 13 -19 5 -33z
m1232 23 c7 -18 -12 -45 -32 -45 -15 0 -28 35 -19 50 9 15 45 12 51 -5z
m-1552 -81 c32 -31 14 -84 -29 -84 -27 0 -45 18 -45 46 0 25 24 54 45 54 7 0
21 -7 29 -16z m1882 -29 c16 -24 16 -27 -1 -45 -31 -34 -75 -19 -75 25 0 48
49 60 76 20z m-3032 -31 c20 -8 20 -28 0 -49 -19 -18 -44 -4 -44 25 0 28 14
36 44 24z m4145 -3 c19 -12 4 -51 -20 -51 -22 0 -34 22 -25 45 6 17 24 19 45
6z m-1804 -155 c128 -35 278 -107 380 -183 236 -176 403 -445 434 -698 5 -38
7 -73 5 -76 -2 -3 -38 -9 -81 -11 -43 -3 -95 -13 -116 -21 l-37 -16 -44 57
c-98 126 -229 236 -362 304 -175 89 -337 125 -525 114 -323 -19 -598 -163
-809 -425 l-35 -43 -46 15 c-25 9 -73 19 -106 22 l-59 7 8 62 c18 135 94 325
177 443 170 240 412 402 692 462 140 31 383 24 524 -13z m-1476 -145 c34 -52
71 -99 83 -105 30 -15 35 -51 9 -65 -29 -16 -54 11 -41 44 5 13 5 25 1 27 -11
4 -131 189 -131 202 0 17 16 -4 79 -103z m2459 87 c-8 -13 -34 -54 -58 -93
-24 -38 -49 -77 -57 -86 -7 -8 -13 -30 -13 -47 0 -22 -6 -32 -20 -37 -27 -9
-40 1 -40 31 0 19 8 29 30 37 17 6 30 16 30 21 0 18 124 196 137 196 3 0 -1
-10 -9 -22z m658 -53 c51 -35 55 -127 7 -165 -38 -29 -86 -26 -125 9 -28 25
-33 36 -33 76 0 39 5 51 28 71 33 28 91 32 123 9z m-3714 -12 c18 -16 23 -49
10 -69 -8 -12 -46 -34 -59 -34 -18 0 -53 41 -53 62 0 50 64 76 102 41z m-489
-55 c7 -20 -12 -48 -32 -48 -21 0 -33 22 -25 45 7 18 51 20 57 3z m4607 -2 c0
-27 -12 -46 -30 -46 -20 0 -36 33 -25 50 10 15 55 12 55 -4z m-3730 -155 c17
-32 11 -60 -15 -77 -49 -32 -97 13 -76 70 9 21 17 26 45 26 25 0 38 -6 46 -19z
m2890 -1 c24 -24 25 -48 4 -78 -37 -53 -114 -4 -92 59 14 41 57 50 88 19z
m-3800 -195 c10 -12 10 -18 0 -30 -25 -30 -61 -7 -46 30 3 8 12 15 19 15 8 0
20 -7 27 -15z m4065 -35 c0 -18 -6 -26 -23 -28 -13 -2 -25 3 -28 12 -10 26 4
48 28 44 17 -2 23 -10 23 -28z m-3566 -30 c81 -41 108 -140 63 -232 -26 -52
-26 -49 32 -138 20 -30 36 -62 36 -70 0 -11 9 -16 28 -15 22 0 28 -5 30 -27 2
-19 -2 -28 -17 -33 -27 -8 -41 1 -41 26 0 11 -26 63 -57 114 -42 68 -62 92
-73 88 -60 -23 -93 -25 -125 -10 -28 13 -34 14 -39 2 -2 -7 -33 -53 -68 -102
-35 -48 -69 -100 -75 -115 -13 -28 -27 -36 -37 -19 -9 14 4 41 20 41 8 0 18
10 23 23 5 12 34 59 66 105 l57 83 -28 41 c-23 33 -29 52 -29 93 2 125 124
202 234 145z m4200 -9 c17 -13 40 -40 51 -61 29 -57 26 -107 -11 -165 l-31
-49 19 -30 c10 -17 38 -66 63 -108 25 -43 51 -78 58 -78 17 0 15 -30 -3 -30
-8 0 -15 4 -15 9 0 4 -29 52 -65 106 -36 53 -69 103 -73 110 -5 10 -18 11 -59
3 -42 -8 -57 -7 -84 6 -17 9 -33 16 -35 16 -1 0 -11 -15 -22 -32 -11 -18 -43
-66 -71 -106 -28 -40 -51 -81 -51 -92 0 -20 -33 -29 -43 -12 -8 12 12 52 25
52 7 1 38 39 68 86 30 47 59 91 64 98 6 9 0 32 -17 67 -31 60 -31 61 -17 111
13 46 54 96 95 114 42 20 116 12 154 -15z m-4869 -47 c0 -13 -2 -24 -4 -24 -2
0 -11 -3 -19 -6 -10 -3 -20 3 -27 17 -11 19 -10 24 5 35 23 17 45 7 45 -22z
m2650 -41 c318 -66 589 -311 695 -628 20 -59 28 -107 32 -192 l6 -113 41 0
c110 0 229 -57 296 -142 37 -46 80 -141 80 -175 0 -23 39 -63 61 -63 10 0 27
10 39 22 24 27 26 74 4 149 -43 149 -153 261 -312 319 l-77 28 -7 73 c-9 86
-30 162 -64 232 -29 60 -26 63 65 73 216 23 432 -123 487 -329 18 -70 18 -171
-2 -237 -16 -53 -16 -55 6 -72 44 -35 82 -17 116 55 13 29 27 73 30 100 4 26
10 47 14 47 4 0 37 -9 72 -20 77 -24 170 -82 217 -135 78 -89 116 -227 99
-360 -10 -79 -62 -182 -107 -212 l-34 -23 -1939 0 -1939 0 -44 45 c-66 68 -89
136 -89 265 -1 94 2 111 26 164 72 152 187 242 344 270 31 5 31 5 37 -48 11
-108 65 -178 122 -156 36 14 39 30 19 99 -58 209 67 440 283 521 74 27 167 36
231 21 l50 -13 -34 -73 c-29 -63 -51 -154 -66 -274 -2 -19 -14 -27 -60 -41
-106 -33 -211 -118 -271 -220 -34 -59 -61 -163 -52 -206 8 -43 45 -70 74 -54
27 14 37 35 45 91 20 136 176 265 335 277 l67 4 0 107 c0 217 88 408 266 577
94 89 146 125 261 179 188 89 373 110 577 68z m-2230 -43 c0 -6 -32 -10 -75
-10 -41 0 -78 0 -82 -1 -4 0 -9 4 -11 10 -2 7 25 11 82 11 51 0 86 -4 86 -10z
m4180 0 c0 -6 -37 -10 -90 -10 -53 0 -90 4 -90 10 0 6 37 10 90 10 53 0 90 -4
90 -10z m-3536 -32 c13 -22 -14 -54 -38 -45 -16 6 -22 48 -9 61 11 11 35 3 47
-16z m2901 -23 c0 -38 -37 -48 -55 -15 -14 27 4 52 34 48 16 -2 21 -10 21 -33z
m-3955 -190 c81 -42 59 -157 -32 -172 -32 -5 -41 -1 -68 25 -41 42 -42 92 -1
133 33 33 58 36 101 14z m4124 -31 c34 -33 7 -94 -42 -94 -31 0 -62 26 -62 53
0 49 70 76 104 41z m534 -286 c4 -36 -26 -53 -56 -32 -26 18 -27 27 -6 49 25
24 58 15 62 -17z m-4363 -455 l-34 -78 -380 -3 -381 -2 0 73 c0 41 3 77 7 80
3 4 190 7 414 7 l408 0 -34 -77z m5137 5 c2 -40 2 -76 0 -80 -2 -5 -175 -8
-385 -8 l-382 0 -30 73 c-16 39 -31 75 -33 79 -2 5 183 8 411 8 l415 0 4 -72z
m-5192 -237 c0 -38 -1 -39 -37 -42 -21 -2 -185 -3 -365 -1 l-328 3 0 39 0 40
365 0 365 0 0 -39z m5190 0 c0 -22 -5 -41 -12 -43 -7 -3 -174 -3 -370 0 l-358
5 0 38 0 39 370 0 370 0 0 -39z m-5137 -237 c9 -19 17 -39 17 -44 0 -7 -140
-9 -387 -8 l-388 3 -3 45 -3 45 374 -3 374 -2 16 -36z m4815 38 l302 -2 0 -22
c0 -13 -3 -33 -6 -45 l-6 -23 -394 0 c-217 0 -394 2 -394 4 0 2 11 24 25 49
l25 45 73 -3 c39 -1 208 -2 375 -3z m262 -274 c0 -18 -4 -39 -8 -46 -7 -10
-191 -13 -888 -17 -483 -3 -937 -7 -1009 -10 -245 -11 -728 -62 -719 -77 3 -4
85 -8 182 -8 97 -1 254 -5 347 -10 94 -5 250 -12 348 -16 100 -4 172 -11 165
-15 -7 -5 -34 -9 -59 -9 -25 0 -115 -6 -200 -14 -85 -8 -220 -20 -302 -27 -81
-7 -145 -14 -143 -17 10 -9 957 -55 1506 -72 173 -6 369 -13 435 -17 l120 -8
-75 -6 c-41 -4 -109 -8 -150 -9 -55 -2 -22 -6 124 -17 110 -7 202 -16 205 -18
2 -3 2 -8 -2 -11 -9 -9 -488 -20 -494 -12 -2 5 -74 8 -159 8 l-154 0 0 -260 0
-260 290 0 c160 0 290 -3 290 -6 0 -4 -9 -22 -21 -40 l-21 -34 -269 0 -269 0
0 -60 c0 -60 -19 -87 -21 -30 -1 17 -3 35 -4 40 -1 6 -3 19 -4 30 -1 18 -8 20
-81 20 l-80 0 0 -110 c0 -90 -3 -110 -15 -110 -12 0 -15 31 -17 198 l-3 197
-96 3 -96 3 -7 -38 c-3 -21 -6 -113 -6 -205 0 -137 -3 -168 -14 -168 -11 0
-15 28 -21 120 l-7 120 -79 0 -78 0 -3 -117 c-2 -82 -7 -118 -15 -121 -10 -3
-13 52 -13 252 l0 256 -80 0 -80 0 0 -70 c0 -40 -4 -70 -10 -70 -6 0 -10 30
-10 70 l0 70 -73 0 c-149 0 -348 -13 -339 -22 5 -5 46 -8 91 -6 l81 3 0 -237
c0 -194 -3 -238 -14 -238 -16 0 -26 63 -26 174 l0 81 -57 13 c-95 22 -133 34
-127 43 2 4 10 6 17 4 7 -2 49 -6 95 -9 78 -6 82 -5 82 14 0 19 -6 20 -101 20
l-101 0 3 83 4 82 -57 3 -58 3 0 64 0 65 -95 0 -95 0 0 -81 0 -82 -37 7 c-21
3 -48 6 -60 6 -14 0 -23 6 -23 15 0 11 -13 15 -54 15 -40 0 -55 4 -60 16 -3 9
-6 78 -6 155 0 117 -2 139 -15 139 -12 0 -15 16 -15 85 l0 85 -35 0 -35 0 0
100 0 100 -25 0 -25 0 0 -100 0 -100 -35 0 -35 0 0 -85 c0 -66 -3 -85 -14 -85
-23 0 -27 -27 -25 -187 0 -85 -2 -157 -5 -160 -3 -4 -29 -7 -58 -7 l-53 -1 -1
-180 c-3 -283 -2 -275 -19 -275 -11 0 -15 11 -15 41 l0 41 -37 -4 c-41 -3 -51
11 -39 58 5 20 12 24 46 24 33 0 40 3 40 19 0 16 -8 20 -42 23 -46 3 -55 17
-44 64 5 20 12 24 46 24 29 0 40 4 40 15 0 11 -11 15 -39 15 -36 0 -40 3 -46
31 -4 17 -4 46 -1 65 6 32 9 34 46 34 21 0 42 5 45 10 4 6 -12 10 -39 10 l-46
0 0 84 c0 109 -3 116 -51 116 -36 0 -39 2 -39 29 l0 30 -100 3 -100 3 -2 -315
c-3 -287 -5 -315 -20 -318 -14 -3 -17 6 -20 50 l-3 53 -72 3 -73 3 0 52 c0 29
-3 75 -6 104 l-7 52 -66 3 -66 3 -3 105 c-3 111 -7 120 -54 120 l-28 0 0 100
c0 82 -3 102 -15 107 -9 3 -18 4 -20 2 -2 -3 -7 -50 -11 -106 l-7 -102 -31 -3
-31 -3 -3 -127 c-3 -130 -19 -176 -24 -70 l-3 57 -75 0 -75 0 -3 -251 c-2
-200 -5 -253 -16 -257 -14 -6 -26 68 -26 164 l0 49 -40 0 c-40 0 -40 0 -40 39
l0 39 40 -2 c36 -2 40 0 40 21 0 19 -6 23 -30 24 -42 2 -47 3 -56 12 -4 4 -22
7 -41 7 l-33 0 0 130 0 130 168 1 c118 0 158 3 137 10 -16 5 -95 9 -175 8 -80
0 -226 4 -325 10 -99 6 -274 16 -390 22 -281 16 -416 25 -380 28 17 1 73 6
125 11 147 14 658 40 935 48 l250 7 -510 13 c-579 15 -1048 31 -1054 38 -10
10 15 12 239 26 l235 14 -175 9 c-167 9 -172 9 -95 16 44 4 219 12 390 18 878
32 1540 63 1551 73 2 3 -31 8 -73 11 -149 12 -628 57 -638 61 -5 1 78 6 185
10 107 3 267 11 355 16 88 5 232 10 320 11 88 0 171 5 185 9 21 7 22 8 5 9
-11 1 -79 8 -150 16 -366 44 -404 46 -1205 56 -437 6 -893 8 -1012 4 -241 -6
-218 -13 -233 63 l-7 32 2906 0 2906 0 0 -32z m-370 -538 c28 -6 17 -8 -50
-10 -47 -1 -111 -5 -142 -9 -56 -7 -58 -6 -58 17 l0 23 108 -6 c59 -4 123 -11
142 -15z m-4143 -206 l-2 -122 -38 -6 c-21 -4 -42 -4 -48 -1 -5 4 -9 -64 -9
-174 0 -185 -3 -211 -25 -211 -19 0 -25 34 -25 138 l0 92 -373 0 -373 0 -23
40 -22 40 390 0 391 0 0 80 0 80 54 0 c62 0 86 7 86 25 0 12 -176 25 -337 25
-61 0 -63 1 -63 25 l0 25 -105 0 -105 0 0 -95 c0 -93 -1 -95 -20 -85 -17 9
-20 21 -20 75 0 56 -3 65 -18 65 -70 0 -368 33 -379 41 -37 31 -14 36 210 44
282 10 690 21 784 21 l73 1 -3 -123z m4276 91 c30 0 33 -4 15 -27 -10 -13 -55
-20 -195 -34 l-183 -18 0 -63 c0 -35 -4 -63 -10 -63 -6 0 -10 44 -10 111 l0
111 178 -8 c97 -5 189 -8 205 -9z m-4613 -105 c0 -5 -18 -10 -40 -10 -22 0
-40 5 -40 10 0 6 18 10 40 10 22 0 40 -4 40 -10z m2310 -85 l0 -65 -60 0 -60
0 0 65 0 65 60 0 60 0 0 -65z m0 -136 c0 -42 -4 -44 -82 -52 l-38 -3 0 51 0
50 60 -3 60 -4 0 -39z m-52 -90 l52 -3 0 -43 c0 -41 -2 -43 -29 -43 -16 0 -43
3 -60 6 -29 6 -31 9 -31 51 0 24 4 42 8 39 5 -3 32 -6 60 -7z m-2408 -274
l175 -175 210 0 210 0 125 125 125 125 299 0 299 0 139 -137 c154 -153 165
-167 147 -189 -38 -45 -43 -43 -188 100 l-138 136 -261 0 -261 0 -84 -87 c-46
-49 -99 -105 -117 -125 l-32 -38 -259 0 -259 0 -185 184 c-102 101 -185 192
-185 202 0 23 29 54 49 54 9 0 95 -79 191 -175z m4422 158 c10 -9 18 -23 18
-32 0 -9 -75 -91 -167 -183 l-168 -168 -680 0 -679 0 -67 -66 c-60 -60 -69
-65 -97 -59 -57 12 -49 32 50 132 l93 94 670 -6 670 -7 155 156 c85 86 161
156 169 156 8 0 23 -7 33 -17z m-2167 -383 c188 -81 277 -309 192 -493 -125
-274 -511 -290 -656 -27 -35 63 -36 68 -36 170 0 93 3 112 26 161 48 102 132
175 237 205 64 18 174 11 237 -16z m-627 -297 l-3 -48 -557 -3 -557 -2 -19 27
c-10 16 -24 38 -31 51 l-12 22 591 0 591 0 -3 -47z m2087 -33 l-25 -50 -550 0
-550 0 0 43 c0 24 3 47 7 50 3 4 262 7 575 7 l568 0 -25 -50z m-2146 -204 c30
-16 51 -53 51 -92 0 -104 -137 -139 -191 -50 -23 38 -24 69 -2 106 28 49 88
64 142 36z m1187 -4 c50 -40 60 -117 20 -157 -47 -47 -110 -45 -158 7 -40 43
-39 89 6 134 27 27 42 34 73 34 21 0 48 -8 59 -18z"/>
<path d="M5005 2240 c-132 -4 -314 -9 -405 -10 l-165 -4 195 -6 c107 -4 298
-11 423 -15 l229 -8 -4 24 c-1 13 -10 24 -18 25 -8 0 -123 -3 -255 -6z"/>
<path d="M3820 2183 c0 -55 10 -83 26 -76 10 3 14 22 14 59 0 47 -2 54 -20 54
-16 0 -20 -7 -20 -37z"/>
<path d="M4683 2105 c-199 -6 -366 -14 -369 -18 -4 -4 89 -7 208 -7 118 0 337
-3 486 -7 l272 -6 0 26 0 27 -117 -1 c-65 -1 -281 -7 -480 -14z"/>
<path d="M4880 1950 c-107 -4 -196 -7 -197 -8 -2 -1 -3 -6 -3 -11 0 -16 82
-23 268 -25 l177 -1 1 -65 c0 -36 2 -71 2 -77 2 -9 25 -13 77 -13 l76 0 -3
103 -3 102 -100 1 c-55 0 -188 -3 -295 -6z"/>
<path d="M1787 1944 c-4 -4 -7 -13 -7 -21 0 -10 19 -13 76 -13 66 0 75 2 72
18 -3 14 -16 18 -69 20 -35 2 -68 0 -72 -4z"/>
<path d="M2360 1930 c0 -12 147 -12 205 -1 30 7 10 9 -82 10 -76 1 -123 -3
-123 -9z"/>
<path d="M4683 1785 c-8 -23 -3 -25 77 -32 73 -6 89 0 90 35 0 20 -159 17
-167 -3z"/>
<path d="M2510 1775 c0 -12 14 -15 70 -15 56 0 70 3 70 15 0 12 -14 15 -70 15
-56 0 -70 -3 -70 -15z"/>
<path d="M3260 1040 c-40 -13 -67 -32 -102 -69 -164 -178 -49 -451 192 -451
78 0 138 24 193 78 62 60 82 105 82 192 0 64 -4 82 -27 122 -53 90 -151 149
-247 148 -20 -1 -61 -9 -91 -20z"/>
<path d="M910 1126 c0 -2 8 -10 18 -17 15 -13 16 -12 3 4 -13 16 -21 21 -21
13z"/>
<path d="M1125 910 c21 -22 41 -40 44 -40 3 0 -13 18 -34 40 -21 22 -41 40
-44 40 -3 0 13 -18 34 -40z"/>
<path d="M4035 135 c-28 -8 -39 -13 -25 -13 14 0 43 5 65 13 51 17 25 17 -40
0z"/>
<path d="M3920 110 c-34 -7 -34 -7 -5 -8 17 0 39 3 50 8 24 10 4 10 -45 0z"/>
<path d="M3838 93 c6 -2 18 -2 25 0 6 3 1 5 -13 5 -14 0 -19 -2 -12 -5z"/>
</g>
</svg>
