<?xml version="1.0" standalone="no"?>
<!DOCTYPE svg PUBLIC "-//W3C//DTD SVG 20010904//EN"
 "http://www.w3.org/TR/2001/REC-SVG-20010904/DTD/svg10.dtd">
<svg version="1.0" xmlns="http://www.w3.org/2000/svg"
 width="1890.000000pt" height="828.000000pt" viewBox="0 0 1890.000000 828.000000"
 preserveAspectRatio="xMidYMid meet">

<g transform="translate(0.000000,828.000000) scale(0.100000,-0.100000)"
fill="#000000" stroke="none">
<path d="M2870 7320 c-808 -108 -1539 -521 -2021 -1140 -345 -443 -574 -1015
-639 -1595 -23 -211 -8 -579 36 -829 75 -433 272 -886 538 -1240 679 -900
1791 -1362 2879 -1196 315 48 633 155 947 316 442 229 806 545 1097 954 345
484 533 1080 533 1691 0 357 -46 632 -165 984 -222 660 -630 1196 -1195 1570
-408 270 -855 433 -1340 490 -174 21 -497 18 -670 -5z m418 -334 c87 -45 111
-148 53 -227 l-21 -29 26 -42 c15 -24 47 -73 71 -110 24 -37 41 -73 38 -79 -4
-5 -40 40 -80 101 l-74 112 -78 2 -78 2 -79 -113 c-44 -62 -83 -113 -88 -113
-4 0 -8 -13 -8 -29 0 -36 -25 -59 -48 -44 -36 22 -21 73 22 73 14 0 28 12 41
33 10 17 47 72 82 121 56 79 62 91 49 105 -27 31 -45 89 -37 119 17 58 41 90
83 111 50 24 88 27 126 7z m-593 -21 c0 -13 -8 -21 -22 -23 -17 -3 -23 2 -23
16 0 10 3 22 7 26 13 13 38 1 38 -19z m1075 0 c0 -18 -5 -25 -19 -25 -11 0
-23 5 -26 10 -11 18 3 40 25 40 15 0 20 -7 20 -25z m-1306 -37 c14 -23 -3 -52
-33 -56 -11 -2 -21 -7 -21 -12 0 -9 -154 -227 -172 -245 -32 -31 9 44 81 146
57 82 81 125 81 146 0 16 3 33 7 37 12 12 45 2 57 -16z m1586 -18 c3 -21 36
-82 83 -153 81 -122 95 -147 81 -147 -5 1 -47 59 -94 130 -49 75 -91 130 -100
130 -22 0 -40 20 -40 45 0 29 9 36 40 33 20 -2 26 -10 30 -38z m-1023 -77
c-20 -2 -52 -2 -70 0 -17 2 0 4 38 4 39 0 53 -2 32 -4z m-1019 -47 c-2 -13
-10 -21 -23 -21 -23 0 -33 34 -14 45 20 13 40 -1 37 -24z m2467 4 c0 -29 -32
-41 -41 -16 -9 24 4 48 23 44 12 -2 18 -12 18 -28z m-1811 -66 c19 -18 21 -55
4 -72 -30 -30 -95 7 -81 47 16 43 49 54 77 25z m1171 -4 c24 -27 13 -68 -22
-76 -20 -5 -31 -2 -45 16 -23 28 -23 35 2 60 25 25 42 25 65 0z m-1607 -157
c-3 -35 -6 -38 -33 -38 -24 0 -31 5 -33 23 -6 38 5 52 38 52 30 0 31 -2 28
-37z m2042 23 c6 -8 10 -25 8 -38 -2 -18 -9 -23 -33 -23 -24 0 -31 5 -33 23
-2 13 -1 30 2 38 7 18 40 18 56 0z m-2426 -78 c25 -8 59 -31 86 -58 88 -87 93
-208 12 -293 -89 -95 -220 -98 -312 -8 -91 88 -93 206 -7 298 63 66 136 86
221 61z m2914 -17 c90 -46 138 -153 112 -247 -19 -65 -89 -138 -150 -154 -91
-24 -191 11 -245 88 -27 40 -30 51 -30 121 0 68 3 83 27 119 64 95 183 126
286 73z m-1246 -8 c24 -21 23 -50 -1 -63 -27 -14 -28 -13 -46 14 -14 20 -14
28 -3 45 16 25 26 26 50 4z m-274 -77 c-2 -13 -12 -22 -25 -24 -19 -3 -23 1
-23 21 0 14 6 27 13 30 22 7 38 -5 35 -27z m-590 -45 c20 -12 10 -46 -14 -49
-25 -4 -40 24 -23 44 13 16 19 17 37 5z m1190 -25 c-2 -13 -10 -21 -23 -21
-23 0 -33 34 -14 45 20 13 40 -1 37 -24z m-1480 -80 c23 -52 -50 -93 -77 -42
-18 33 0 66 38 66 20 0 31 -7 39 -24z m1797 -2 c20 -20 16 -53 -7 -68 -37 -23
-76 35 -48 70 16 18 35 18 55 -2z m-2910 -64 c0 -18 -6 -26 -21 -28 -26 -4
-40 24 -23 45 18 21 44 11 44 -17z m3990 0 c0 -16 -6 -26 -18 -28 -19 -4 -32
20 -23 44 9 25 41 13 41 -16z m-1835 -111 c370 -54 715 -342 837 -699 30 -89
56 -226 46 -242 -2 -5 -30 -8 -61 -8 -31 -1 -81 -9 -110 -19 l-53 -18 -50 63
c-106 133 -234 235 -384 305 -142 67 -224 83 -415 83 -147 0 -176 -3 -265 -27
-219 -59 -398 -176 -556 -365 l-44 -53 -40 14 c-22 8 -68 18 -101 22 l-60 7 8
61 c28 205 132 405 299 574 251 254 570 356 949 302z m-1348 -127 c25 -37 52
-82 61 -99 10 -19 26 -33 39 -35 28 -4 36 -39 14 -57 -24 -20 -46 -6 -46 28 0
19 -21 62 -60 123 -54 83 -67 108 -56 108 1 0 23 -30 48 -68z m2329 -44 c-33
-52 -61 -108 -63 -124 -2 -23 -8 -29 -28 -29 -20 0 -26 6 -28 27 -3 22 2 29
23 34 14 3 30 16 37 28 25 50 113 176 116 168 1 -5 -24 -52 -57 -104z m704 38
c56 -56 40 -145 -30 -164 -70 -20 -125 25 -125 102 0 73 103 114 155 62z
m-3593 -3 c28 -25 23 -70 -10 -87 -58 -30 -109 37 -65 86 20 22 51 23 75 1z
m-469 -57 c3 -8 0 -22 -7 -32 -18 -24 -46 -11 -46 21 0 20 5 25 24 25 13 0 26
-6 29 -14z m4444 -1 c2 -6 -3 -19 -11 -30 -12 -16 -16 -17 -30 -6 -9 7 -16 22
-16 33 0 15 6 19 27 16 14 -2 28 -8 30 -13z m-3603 -141 c32 -31 5 -94 -41
-94 -35 0 -58 71 -31 98 17 17 54 15 72 -4z m2794 -6 c20 -20 15 -76 -9 -88
-56 -30 -107 38 -67 88 13 15 60 16 76 0z m-3663 -203 c0 -22 -31 -33 -47 -17
-17 17 -1 44 24 40 15 -2 23 -10 23 -23z m3925 -19 c0 -8 -7 -19 -15 -26 -28
-23 -60 21 -33 48 14 14 48 -2 48 -22z m-3450 -28 c86 -44 112 -149 59 -235
l-21 -34 46 -70 c26 -39 46 -78 44 -87 -3 -11 -23 13 -58 66 -49 78 -55 83
-79 76 -33 -10 -101 -10 -121 -1 -12 6 -33 -17 -86 -95 -39 -57 -74 -111 -77
-120 -8 -21 -37 -24 -37 -4 0 7 11 21 25 30 14 9 25 21 25 26 0 6 25 48 56 95
l56 84 -21 30 c-35 49 -44 84 -32 129 15 53 46 91 95 113 53 24 73 24 126 -3z
m4026 3 c55 -25 87 -71 92 -135 3 -44 -1 -57 -27 -97 l-31 -46 60 -99 c33 -55
67 -104 75 -110 19 -14 19 -24 1 -24 -8 0 -21 11 -28 24 -7 13 -40 64 -72 113
l-59 89 -48 -10 c-39 -8 -55 -7 -81 6 l-33 15 -65 -96 c-36 -52 -67 -105 -70
-116 -7 -24 -50 -34 -50 -11 0 8 8 21 19 28 10 7 47 55 81 107 l63 94 -16 31
c-34 64 -37 83 -22 134 16 54 43 83 95 106 46 20 67 19 116 -3z m-4668 -59 c4
-29 -26 -42 -44 -18 -17 24 -6 48 20 44 13 -2 22 -12 24 -26z m2597 -46 c158
-44 314 -139 423 -255 63 -67 155 -208 185 -285 31 -76 57 -213 57 -296 l0
-58 68 -4 c81 -5 170 -42 225 -96 44 -42 92 -130 103 -186 13 -71 63 -97 105
-55 32 32 21 112 -31 215 -59 120 -161 203 -297 244 -36 11 -43 18 -47 44 -17
121 -31 180 -57 241 -20 48 -26 72 -18 80 18 18 171 19 236 0 146 -42 263
-154 299 -287 17 -64 20 -192 5 -231 -18 -45 -13 -72 13 -87 42 -22 72 -6 100
53 14 28 28 73 32 100 3 26 10 47 14 47 27 0 137 -43 177 -68 165 -106 236
-282 188 -466 -18 -68 -57 -138 -92 -166 -25 -20 -42 -20 -1899 -20 l-1874 0
-41 43 c-75 77 -111 201 -90 315 35 188 173 326 352 355 l36 5 6 -54 c11 -109
81 -184 128 -137 21 21 21 22 5 105 -15 77 -16 91 -2 157 29 139 114 249 240
311 60 30 81 35 160 38 50 2 103 -1 118 -7 l27 -10 -35 -85 c-22 -54 -39 -119
-47 -176 l-12 -91 -59 -20 c-169 -58 -304 -223 -309 -380 -2 -51 21 -89 54
-89 24 0 59 47 59 80 0 42 56 144 102 185 60 55 140 88 221 93 l67 4 0 102 c0
197 58 341 206 512 117 135 310 248 489 288 92 20 324 16 410 -8z m-2195 -36
c0 -6 -33 -10 -80 -10 -47 0 -80 4 -80 10 0 6 33 10 80 10 47 0 80 -4 80 -10z
m4030 0 c0 -6 -35 -10 -85 -10 -50 0 -85 4 -85 10 0 6 35 10 85 10 50 0 85 -4
85 -10z m-3410 -14 c0 -2 3 -11 6 -19 8 -22 -25 -51 -42 -36 -15 12 -19 41 -7
52 7 8 43 10 43 3z m2794 -12 c22 -8 20 -41 -3 -54 -15 -7 -23 -6 -35 6 -18
18 -18 17 -10 38 6 17 22 20 48 10z m-3797 -213 c77 -48 40 -161 -53 -161 -37
0 -84 51 -84 90 0 38 47 90 82 90 13 0 37 -9 55 -19z m3967 -27 c33 -33 7 -94
-41 -94 -25 0 -63 32 -63 53 0 47 70 75 104 41z m-3159 -64 c0 -18 -6 -26 -23
-28 -24 -4 -38 18 -28 44 3 9 15 14 28 12 17 -2 23 -10 23 -28z m3673 -192 c6
-8 6 -22 1 -35 -10 -28 -53 -31 -68 -6 -19 35 42 71 67 41z m-4203 -455 l-34
-78 -365 -3 -366 -2 0 73 c0 41 3 77 7 80 3 4 183 7 399 7 l393 0 -34 -77z
m4949 40 c3 -21 6 -57 6 -80 l0 -43 -375 0 c-293 0 -375 3 -375 13 0 6 -14 41
-30 75 -17 35 -30 66 -30 68 0 2 179 4 399 4 l398 0 7 -37z m-5006 -270 l-3
-38 -347 -2 -348 -2 0 39 0 40 351 0 350 0 -3 -37z m5000 0 l-3 -38 -330 -2
c-181 -2 -340 0 -352 2 -19 4 -23 12 -23 40 l0 35 356 0 355 0 -3 -37z m-4948
-223 c11 -21 20 -42 20 -45 0 -3 -168 -5 -374 -5 l-374 0 -6 35 c-4 20 -4 40
-1 45 4 6 139 10 360 10 l355 0 20 -40z m4928 -2 l-3 -43 -382 -3 -383 -2 22
45 22 45 364 0 363 0 -3 -42z m-31 -201 c2 -2 0 -22 -5 -43 l-8 -39 -929 -6
c-756 -5 -965 -9 -1115 -23 -264 -24 -453 -47 -470 -57 -9 -5 54 -9 155 -9 94
0 258 -5 365 -11 107 -6 263 -14 345 -18 83 -4 139 -10 125 -13 -14 -3 -146
-16 -295 -28 -148 -12 -292 -26 -320 -30 l-50 -8 45 -1 c25 -1 151 -8 280 -16
129 -8 433 -21 675 -30 736 -26 974 -38 930 -46 -22 -4 -74 -9 -115 -10 l-75
-2 65 -7 c36 -5 113 -11 173 -15 209 -13 99 -34 -191 -36 -96 0 -176 2 -179 5
-4 3 -73 6 -155 6 l-148 0 0 -250 0 -250 280 0 c154 0 280 -3 280 -6 0 -4 -9
-22 -21 -40 l-21 -34 -259 0 -259 0 0 -55 c0 -30 -4 -55 -9 -55 -5 0 -13 25
-16 55 l-7 55 -73 0 -72 0 -5 -100 c-3 -55 -8 -103 -11 -107 -17 -17 -22 22
-25 193 l-3 184 -94 0 -95 0 -2 -192 c-3 -164 -5 -193 -18 -193 -12 0 -16 20
-18 113 l-3 113 -77 -3 -77 -3 -3 -112 c-2 -94 -5 -113 -18 -113 -13 0 -15 30
-12 245 l3 245 -77 0 -78 0 0 -59 c0 -33 -4 -63 -10 -66 -6 -4 -10 18 -10 59
l0 66 -107 -1 c-60 -1 -155 -4 -213 -8 l-105 -7 68 -8 c37 -5 81 -6 97 -2 l30
6 0 -230 c0 -189 -2 -230 -14 -230 -20 0 -26 32 -26 145 l0 101 -77 17 c-121
27 -125 40 -10 32 83 -5 97 -4 97 9 0 12 -18 16 -92 18 l-93 3 -3 83 -3 82
-54 0 -55 0 0 59 c0 69 1 69 -105 66 l-70 -1 -3 -70 c-2 -50 -7 -72 -19 -81
-16 -12 -16 -13 1 -13 15 0 17 -9 14 -62 l-3 -63 -58 -3 -58 -4 3 68 c3 66 3
67 33 71 43 6 44 13 2 13 -26 0 -37 4 -37 15 0 12 -13 15 -55 15 l-55 0 0 150
c0 127 -2 150 -15 150 -12 0 -15 16 -15 80 l0 80 -35 0 -35 0 0 95 c0 95 0 95
-25 95 -25 0 -25 0 -25 -96 l0 -96 -32 4 -33 3 -3 -80 c-2 -57 -7 -82 -17 -88
-12 -6 -15 -39 -15 -172 l0 -164 -57 -3 -58 -3 -3 -217 c-2 -185 -5 -218 -17
-218 -10 0 -15 11 -15 35 0 33 -2 35 -35 35 -34 0 -35 1 -35 40 l0 40 40 0
c33 0 40 3 40 20 0 17 -7 20 -40 20 l-40 0 0 45 0 45 40 0 c40 0 58 19 20 21
-11 1 -24 3 -30 4 -5 1 -14 3 -20 4 -5 0 -10 28 -10 61 0 50 3 60 18 61 73 3
97 19 29 19 l-47 0 0 95 0 95 -40 0 c-38 0 -40 2 -40 30 l0 30 -100 0 -100 0
0 -300 c0 -293 0 -300 -20 -300 -17 0 -20 7 -20 50 l0 50 -70 0 -70 0 0 48 c0
26 -3 70 -6 99 l-7 52 -61 3 c-44 2 -62 7 -64 18 -2 12 9 14 65 12 38 -2 93 1
123 6 50 9 43 10 -67 11 l-123 1 -1 28 c-1 15 -2 52 -3 82 l-1 55 -37 3 -38 3
0 99 c0 82 -3 99 -16 104 -9 4 -18 5 -20 4 -1 -2 -6 -49 -10 -105 l-7 -102
-31 -3 -31 -3 -5 -125 c-5 -120 -16 -145 -22 -50 l-3 45 -70 0 -70 0 -5 -244
c-3 -165 -9 -246 -16 -248 -11 -4 -24 82 -24 163 l0 44 -40 0 c-39 0 -40 1
-40 35 0 34 1 35 40 35 36 0 40 3 40 25 0 21 -5 25 -31 25 -16 0 -50 5 -75 11
l-44 11 0 124 0 124 152 0 c83 0 149 2 146 5 -3 3 -106 7 -229 10 -123 3 -352
12 -509 20 -157 9 -334 19 -395 22 -71 4 -102 9 -88 14 38 14 814 57 1093 61
195 2 134 5 -560 23 -638 16 -790 23 -790 35 0 4 66 11 147 15 81 4 168 11
193 15 42 7 41 8 -30 10 -41 1 -100 5 -130 10 l-55 7 45 2 c25 1 196 8 380 16
184 8 477 19 650 25 173 6 383 15 465 20 83 5 209 12 280 16 72 4 126 8 120
10 -5 2 -161 17 -345 34 -184 17 -337 33 -339 36 -2 2 36 4 85 4 49 0 206 7
349 15 143 8 328 15 412 15 83 0 154 4 157 8 6 9 -175 33 -449 58 -136 13
-357 17 -1102 21 l-931 5 -6 22 c-3 11 -6 31 -6 43 l0 23 393 2 c548 4 5200
-1 5204 -5z m-358 -543 c9 -9 -8 -11 -121 -18 -116 -6 -118 -6 -118 15 0 21 2
22 118 14 64 -3 119 -9 121 -11z m-3989 -127 c0 -89 15 -83 -208 -72 -194 10
-197 10 -200 33 -3 22 -6 23 -100 20 l-97 -3 -3 -87 c-1 -49 -6 -88 -10 -88
-21 0 -32 29 -32 81 l0 56 -147 12 c-213 17 -237 22 -241 47 -3 20 2 21 225
29 303 10 796 21 806 17 4 -2 7 -22 7 -45z m4088 17 c28 -3 52 -9 52 -13 0
-22 -40 -32 -198 -48 l-172 -17 0 -58 c0 -32 -4 -58 -10 -58 -6 0 -10 42 -10
106 l0 105 143 -6 c78 -3 166 -8 195 -11z m-4418 -104 c0 -5 -16 -10 -35 -10
-19 0 -35 5 -35 10 0 6 16 10 35 10 19 0 35 -4 35 -10z m320 -60 l0 -50 -45 0
-45 0 0 -180 c0 -154 -2 -182 -15 -187 -9 -3 -18 -3 -21 0 -4 3 -9 53 -11 111
l-6 106 -357 0 -356 0 -23 40 -22 40 378 2 378 3 -3 72 -4 71 59 7 c52 6 83
10 91 14 1 0 2 -21 2 -49z m1908 -151 c3 -41 -10 -49 -80 -49 l-38 0 0 45 0
46 58 -3 57 -3 3 -36z m-3 -134 c0 -32 -4 -40 -17 -39 -10 0 -36 1 -58 2 l-40
2 0 43 0 42 58 -5 57 -5 0 -40z m-2371 -215 l170 -170 203 0 203 0 118 120
119 120 288 0 288 0 144 -142 c79 -78 143 -149 143 -156 0 -18 -29 -41 -51
-42 -9 0 -72 56 -141 125 l-126 125 -255 0 -256 0 -113 -120 -113 -120 -245 0
-245 0 -155 153 c-154 151 -210 212 -210 228 0 14 38 49 53 49 6 0 88 -77 181
-170z m4265 146 c18 -19 20 -28 13 -43 -6 -10 -80 -87 -164 -170 l-154 -153
-655 0 -655 0 -59 -60 c-58 -58 -81 -69 -119 -54 -30 12 -15 39 66 121 l83 83
649 0 650 0 151 150 c83 83 156 150 161 150 6 0 21 -11 33 -24z m-2072 -376
c226 -112 268 -417 80 -585 -72 -65 -141 -88 -252 -83 -142 7 -232 61 -296
180 -32 60 -34 68 -34 163 0 81 4 109 22 147 25 55 93 131 146 165 96 61 226
66 334 13z m-619 -269 c2 -18 0 -37 -5 -41 -4 -5 -247 -10 -540 -13 -590 -6
-541 -11 -577 61 l-17 32 568 -2 568 -3 3 -34z m2007 -41 l-25 -50 -528 2
-527 3 0 40 c0 22 5 43 10 47 6 4 254 8 553 8 l542 0 -25 -50z m-2056 -206
c38 -32 49 -80 27 -122 -20 -38 -44 -52 -88 -52 -43 0 -76 24 -94 66 -12 29
-12 39 0 68 28 68 100 87 155 40z m1140 0 c38 -32 49 -80 27 -122 -20 -39 -44
-52 -91 -52 -50 0 -105 53 -105 100 0 23 10 42 34 66 43 43 90 46 135 8z"/>
<path d="M4475 3240 l-170 -5 220 -7 c121 -5 298 -11 393 -14 171 -7 172 -7
172 14 0 22 -1 22 -222 20 -123 -1 -299 -5 -393 -8z"/>
<path d="M3687 3178 c7 -60 8 -62 22 -53 6 3 11 28 11 56 0 42 -3 49 -20 49
-17 0 -18 -5 -13 -52z"/>
<path d="M4870 3129 c-113 -4 -313 -11 -445 -16 l-240 -8 255 -6 c140 -3 344
-7 453 -8 189 -1 197 0 197 18 0 11 -3 21 -7 23 -5 2 -100 1 -213 -3z"/>
<path d="M4708 2971 c-176 -6 -211 -11 -194 -28 4 -5 101 -10 216 -11 238 -4
225 2 213 -99 l-6 -53 77 0 77 0 -3 98 -3 97 -95 1 c-52 0 -179 -2 -282 -5z"/>
<path d="M1722 2953 c3 -15 14 -18 66 -17 34 1 65 4 68 7 16 16 -14 27 -72 27
-57 0 -65 -2 -62 -17z"/>
<path d="M4583 2823 c-53 -3 -73 -8 -73 -17 0 -18 32 -26 103 -26 54 0 57 1
57 25 0 14 -3 24 -7 23 -5 -1 -41 -4 -80 -5z"/>
<path d="M2425 2809 c-12 -18 3 -23 62 -20 65 3 86 11 57 22 -29 12 -112 10
-119 -2z"/>
<path d="M3165 2101 c-110 -29 -195 -140 -195 -254 0 -137 121 -257 260 -257
138 0 270 127 270 261 0 86 -55 178 -135 224 -46 28 -146 41 -200 26z"/>
</g>
</svg>
